<?xml version="1.0" encoding="UTF-8"?>
<svg width="37px" height="37px" viewBox="0 0 37 37" version="1.1" xmlns="http://www.w3.org/2000/svg" xmlns:xlink="http://www.w3.org/1999/xlink">
    <!-- Generator: Sketch 45.2 (43514) - http://www.bohemiancoding.com/sketch -->
    <title>Facebook</title>
    <desc>Created with Sketch.</desc>
    <defs></defs>
    <g id="Page-1" stroke="none" stroke-width="1" fill="none" fill-rule="evenodd">
        <path d="M36.711,34.685 C36.711,35.804 35.804,36.711 34.685,36.711 L25.33,36.711 L25.33,22.494 L30.102,22.494 L30.817,16.954 L25.33,16.954 L25.33,13.417 C25.33,11.813 25.776,10.719 28.076,10.719 L31.01,10.718 L31.01,5.763 C30.502,5.695 28.761,5.544 26.735,5.544 C22.505,5.544 19.609,8.126 19.609,12.868 L19.609,16.954 L14.825,16.954 L14.825,22.494 L19.609,22.494 L19.609,36.711 L2.026,36.711 C0.907,36.711 0,35.804 0,34.685 L0,2.026 C0,0.907 0.907,0 2.026,0 L34.685,0 C35.804,0 36.711,0.907 36.711,2.026 L36.711,34.685" id="Facebook" fill="#FFFFFF"></path>
    </g>
</svg>