<?xml version="1.0" encoding="UTF-8"?>
<svg width="38px" height="32px" viewBox="0 0 38 32" version="1.1" xmlns="http://www.w3.org/2000/svg" xmlns:xlink="http://www.w3.org/1999/xlink">
    <!-- Generator: Sketch 45.2 (43514) - http://www.bohemiancoding.com/sketch -->
    <title>Twitter</title>
    <desc>Created with Sketch.</desc>
    <defs></defs>
    <g id="Page-1" stroke="none" stroke-width="1" fill="none" fill-rule="evenodd">
        <path d="M36.326,0.708 C34.84,1.609 33.198,2.265 31.443,2.617 C30.045,1.086 28.047,0.13 25.835,0.13 C21.595,0.13 18.154,3.658 18.154,8.009 C18.154,8.627 18.22,9.227 18.352,9.804 C11.966,9.475 6.305,6.341 2.513,1.569 C1.851,2.737 1.473,4.091 1.473,5.534 C1.473,8.266 2.829,10.679 4.892,12.092 C3.634,12.054 2.447,11.695 1.409,11.109 L1.409,11.206 C1.409,15.025 4.058,18.21 7.576,18.932 C6.932,19.116 6.252,19.209 5.551,19.209 C5.056,19.209 4.573,19.162 4.105,19.069 C5.083,22.198 7.919,24.477 11.282,24.538 C8.653,26.653 5.338,27.913 1.739,27.913 C1.119,27.913 0.506,27.877 -0.094,27.805 C3.306,30.037 7.347,31.342 11.685,31.342 C25.82,31.342 33.547,19.337 33.547,8.925 C33.547,8.582 33.541,8.239 33.528,7.903 C35.029,6.792 36.333,5.405 37.359,3.825 C35.983,4.452 34.501,4.876 32.947,5.065 C34.534,4.091 35.752,2.547 36.326,0.708" id="Twitter" fill="#FFFFFF"></path>
    </g>
</svg>